<svg id="Layer_1" data-name="Layer 1" xmlns="http://www.w3.org/2000/svg" viewBox="0 0 698 699"><defs><style>.cls-1{fill:#111;}.cls-2{fill:#fffffc;}</style></defs><title>logov2Artboard 1</title><path class="cls-1" d="M349,.84C156.17.84-.16,157.17-.16,350S156.17,699.16,349,699.16,698.16,542.83,698.16,350,541.83.84,349,.84Zm0,552.8c-112.47,0-203.64-91.17-203.64-203.64S236.53,146.36,349,146.36,552.64,237.53,552.64,350,461.47,553.64,349,553.64Z"/><path class="cls-2" d="M57.87,334a45.06,45.06,0,0,1-16.71-7.79,41.27,41.27,0,0,1-11.7-13.75,50.71,50.71,0,0,1-5.47-19A69.82,69.82,0,0,1,26,270a91,91,0,0,1,2.72-9.14,81.23,81.23,0,0,1,3.74-8.8,74.61,74.61,0,0,1,4.73-8.2,57.62,57.62,0,0,1,5.71-7.26l11.65,11.63a35.19,35.19,0,0,0-3.76,4.69,50.88,50.88,0,0,0-3.42,5.89,64.8,64.8,0,0,0-2.87,6.73,67.87,67.87,0,0,0-2.16,7.16,50.47,50.47,0,0,0-1.51,15.55,33.8,33.8,0,0,0,3.27,12.61A26.32,26.32,0,0,0,51.62,310a29.46,29.46,0,0,0,11.15,5.24,30,30,0,0,0,12.74.43,28.11,28.11,0,0,0,11.24-4.81,34.41,34.41,0,0,0,8.94-9.65A50.11,50.11,0,0,0,102.9,275,32.41,32.41,0,0,0,101,264.69a23.78,23.78,0,0,0-4.89-8.06,22.24,22.24,0,0,0-7.71-5.37l-7.54,31.09L66,278.74l11.48-47.32,0,0,0-.07A47.39,47.39,0,0,1,91,233.71a40.76,40.76,0,0,1,11.47,5.92,39.82,39.82,0,0,1,8.9,9.18,42.38,42.38,0,0,1,5.78,12.07,52.88,52.88,0,0,1,2.12,14.63,67.86,67.86,0,0,1-2.06,16.8,65.33,65.33,0,0,1-9,21.35,50.84,50.84,0,0,1-14,14.24,44,44,0,0,1-17.34,6.86A47,47,0,0,1,57.87,334Z"/><path class="cls-2" d="M96.17,206.24a46.49,46.49,0,0,1-12.08-15.12,43.05,43.05,0,0,1-4.46-17.71,48.8,48.8,0,0,1,3.29-18.81,68.86,68.86,0,0,1,27.45-32.69,48.44,48.44,0,0,1,18-6.51,42.88,42.88,0,0,1,18.2,1.32,46.59,46.59,0,0,1,17,9.29,47.4,47.4,0,0,1,12.2,15.22,43.75,43.75,0,0,1,4.59,17.82A48.79,48.79,0,0,1,177.16,178a67.06,67.06,0,0,1-27.45,32.69,49.05,49.05,0,0,1-18.1,6.38,43.92,43.92,0,0,1-18.34-1.44A47.37,47.37,0,0,1,96.17,206.24Zm12-14.22a30.83,30.83,0,0,0,11.42,6.26,28,28,0,0,0,12,.81,32,32,0,0,0,11.63-4.24,42.83,42.83,0,0,0,17.29-20.59,31.43,31.43,0,0,0,2.14-12.17,28.65,28.65,0,0,0-2.86-11.66,30.58,30.58,0,0,0-8.13-10.19,30,30,0,0,0-11.39-6.2,27.57,27.57,0,0,0-11.85-.7,31,31,0,0,0-11.43,4.37,45,45,0,0,0-17.3,20.59,31.62,31.62,0,0,0-2.34,12A27,27,0,0,0,100,181.89,30.53,30.53,0,0,0,108.12,192Z"/><path class="cls-2" d="M172.62,65.24l17-7.46,64.27,4.41-12-27.36,17-7.47,36.83,83.85-17,7.47L261.82,80.21,197.62,76l28.84,65.67-17,7.47Z"/><path class="cls-2" d="M309.15,62.49a45.14,45.14,0,0,1,4.18-18.15,42,42,0,0,1,11.08-14.42,50.78,50.78,0,0,1,17.36-9.35,68.62,68.62,0,0,1,23-3,87.53,87.53,0,0,1,20.47,2.81,65.11,65.11,0,0,1,17.18,7.34l-8.92,13.83a30.49,30.49,0,0,0-5.46-3,51.55,51.55,0,0,0-6.63-2.26,68.41,68.41,0,0,0-7.28-1.51,61.51,61.51,0,0,0-7.46-.67A53.09,53.09,0,0,0,350.71,36,34.27,34.27,0,0,0,338.8,41.8,26.29,26.29,0,0,0,331.29,51a28.78,28.78,0,0,0-2.81,12,29.87,29.87,0,0,0,2.25,12.55,27.58,27.58,0,0,0,7.2,10,35.38,35.38,0,0,0,11.78,6.76,51.09,51.09,0,0,0,15.9,2.74,55.37,55.37,0,0,0,8-.37,63.42,63.42,0,0,0,7.74-1.41A60.4,60.4,0,0,0,388.63,91a57,57,0,0,0,6.53-3l8.18,14.28a63.2,63.2,0,0,1-17.54,7.07,78.39,78.39,0,0,1-21,2.17,76.82,76.82,0,0,1-24.68-4.32A51.24,51.24,0,0,1,322.6,96.7a41.5,41.5,0,0,1-10.35-15.4A48.51,48.51,0,0,1,309.15,62.49Zm52.17,46-.16,6q9.93,1.42,14.26,5.09a11.24,11.24,0,0,1,4.18,9.29,9.92,9.92,0,0,1-1.76,5.58,13.08,13.08,0,0,1-4.5,3.89,22.58,22.58,0,0,1-6.63,2.26,38.32,38.32,0,0,1-8.19.6,51.66,51.66,0,0,1-9.47-1.16,42.35,42.35,0,0,1-8.77-2.84l4.17-9.33a42,42,0,0,0,7.13,2.07,39.55,39.55,0,0,0,6.22.69,24,24,0,0,0,3.91-.16,10.28,10.28,0,0,0,2.5-.63,3.28,3.28,0,0,0,1.35-1,2.06,2.06,0,0,0,.41-1.14,2.25,2.25,0,0,0-.72-1.63,6.43,6.43,0,0,0-2.54-1.33,28.32,28.32,0,0,0-4.9-1c-2.07-.25-4.64-.41-7.73-.5l.41-15.17Z"/><path class="cls-2" d="M483,46.46,500.76,55,501,156.71l-17.58-8.44.07-17.07L435.29,108l-13.07,10.82-17.64-8.48Zm.52,67.79.16-46.08L448.3,97.32Z"/><path class="cls-2" d="M571.81,102.38l12.56,13.68L528.88,167l36,39.25-12,11-48.56-52.93Z"/><path class="cls-2" d="M601.2,205.08a46.36,46.36,0,0,1,19.17-2.75,42.88,42.88,0,0,1,17.51,5.14,48.52,48.52,0,0,1,14.55,12.37,68.71,68.71,0,0,1,14.26,40.24,48.49,48.49,0,0,1-3.5,18.8,43.22,43.22,0,0,1-10.38,15,46.38,46.38,0,0,1-16.62,9.93,47.36,47.36,0,0,1-19.31,2.8,43.77,43.77,0,0,1-17.68-5.08,48.86,48.86,0,0,1-14.72-12.35A67.1,67.1,0,0,1,570.22,249a49,49,0,0,1,3.68-18.83,43.66,43.66,0,0,1,10.54-15.08A47.21,47.21,0,0,1,601.2,205.08Zm6.2,17.51a30.82,30.82,0,0,0-11.18,6.66,28.1,28.1,0,0,0-6.78,9.93,31.82,31.82,0,0,0-2.24,12.17,42.67,42.67,0,0,0,9,25.35,31.6,31.6,0,0,0,9.4,8,28.72,28.72,0,0,0,11.5,3.45A30.68,30.68,0,0,0,630,286.32a30.24,30.24,0,0,0,11.12-6.67,27.72,27.72,0,0,0,6.61-9.87,31.16,31.16,0,0,0,2-12.06,45.17,45.17,0,0,0-9-25.35,31.43,31.43,0,0,0-9.19-8.12,27.08,27.08,0,0,0-11.34-3.51A30.49,30.49,0,0,0,607.4,222.59Z"/><path class="cls-2" d="M680.61,392.08l-12.19,47.39a57.16,57.16,0,0,1-5.73,14.64,33.31,33.31,0,0,1-7.83,9.39,21,21,0,0,1-9.32,4.35,23.29,23.29,0,0,1-10.15-.4A23,23,0,0,1,622,458.3,24.26,24.26,0,0,1,610.18,465a29.15,29.15,0,0,1-13.94-.38,29.91,29.91,0,0,1-10.65-4.95,22.8,22.8,0,0,1-6.92-8.5,30.3,30.3,0,0,1-2.7-12.07,55.66,55.66,0,0,1,2-15.66l13.94-54.2Zm-87.09,35.86q-1.86,7.26.28,11.84c1.44,3.05,4,5.06,7.83,6a11.31,11.31,0,0,0,9.82-1.5q4.15-3,6-10.22l9.43-36.66L603,391.28Zm39.07,9.69c-.4,1.55-.84,3.05-1.33,4.5a11.54,11.54,0,0,0,7.3,5.93A8.82,8.82,0,0,0,647,446.2q3.62-3.09,5.48-10.35L660.15,406l-18.21-4.69Z"/><path class="cls-2" d="M614.87,548.44,602.6,563.83l-99.22-22.47,12.16-15.26L532.16,530l33.36-41.82L557.89,473l12.2-15.3Zm-66.19-14.65,44.87,10.46-20.5-41Z"/><path class="cls-2" d="M538.92,625l-41.34,21.48A67.19,67.19,0,0,1,480.35,653a35.31,35.31,0,0,1-14.32.27,25.62,25.62,0,0,1-11.41-5.49,35,35,0,0,1-8.45-10.86,37.53,37.53,0,0,1-3.38-9.18,28.61,28.61,0,0,1-.55-9.25,29,29,0,0,1,2.52-9.07,34.71,34.71,0,0,1,5.75-8.63L419.32,584l20.17-10.48,27.28,15.13.47-.24,25-12.92-12-23.13,16.48-8.57Zm-64.56-22.18a30.91,30.91,0,0,0-7.62,5.35,18.9,18.9,0,0,0-4.28,6.12,13.91,13.91,0,0,0-1,6.65,18.41,18.41,0,0,0,2.12,6.92q3.54,6.81,10.15,8.1t16-3.61L515,619.26l-15.35-29.53Z"/><path class="cls-2" d="M410.12,678.61l-46.5,2.69a67.77,67.77,0,0,1-18.38-1.14,35.49,35.49,0,0,1-13.18-5.61,25.56,25.56,0,0,1-8.15-9.68,34.85,34.85,0,0,1-3.27-13.37,37.29,37.29,0,0,1,.67-9.75,28.4,28.4,0,0,1,9.29-15.92,35,35,0,0,1,8.78-5.52l-21.58-28.1,22.7-1.31,18.7,25,.52,0,28.08-1.56-1.5-26,18.55-1.07ZM360.3,632a31.37,31.37,0,0,0-9.14,1.76,19,19,0,0,0-6.41,3.84,13.84,13.84,0,0,0-3.67,5.64,18.57,18.57,0,0,0-.9,7.18q.44,7.67,5.95,11.54t16.09,3.27l28.43-1.64-1.92-33.23Z"/><path class="cls-2" d="M291.15,635.08a46.56,46.56,0,0,1-10.61,16.2A43,43,0,0,1,265.11,661a48.65,48.65,0,0,1-18.9,2.73,68.6,68.6,0,0,1-39.62-15.89,48.41,48.41,0,0,1-11.79-15,43,43,0,0,1-4.42-17.72,46.28,46.28,0,0,1,3.54-19,47.1,47.1,0,0,1,10.65-16.34,43.76,43.76,0,0,1,15.5-9.91,49,49,0,0,1,19-2.9,67.08,67.08,0,0,1,39.61,15.9A49,49,0,0,1,290.39,598a43.75,43.75,0,0,1,4.35,17.87A47.34,47.34,0,0,1,291.15,635.08Zm-17.24-6.92a30.84,30.84,0,0,0,2.39-12.8,28.25,28.25,0,0,0-3-11.64,31.68,31.68,0,0,0-7.65-9.73,42.81,42.81,0,0,0-25-10,31.6,31.6,0,0,0-12.23,1.76,28.65,28.65,0,0,0-10.19,6.36A30.56,30.56,0,0,0,211.15,603a30.17,30.17,0,0,0-2.34,12.76,27.55,27.55,0,0,0,3,11.48,31,31,0,0,0,7.71,9.5,45,45,0,0,0,25,10,31.43,31.43,0,0,0,12.16-1.52,27.14,27.14,0,0,0,10.13-6.2A30.6,30.6,0,0,0,273.91,628.16Z"/><path class="cls-2" d="M178.4,560.08q-1.23-5.58-3-10.91a80.23,80.23,0,0,0-4.26-10.46,84.48,84.48,0,0,0-6-10.21,97.64,97.64,0,0,0-8-10.17A77.79,77.79,0,0,0,147,508.58a34.53,34.53,0,0,0-8.54-5.05,13.47,13.47,0,0,0-6.94-.94,10.43,10.43,0,0,0-5.39,2.59,9.11,9.11,0,0,0-3.09,8.35q.61,5,6.4,11.5a66.74,66.74,0,0,0,5.73,5.64q3.18,2.82,6.49,5.63t6.48,5.6a67.44,67.44,0,0,1,5.63,5.54,43.67,43.67,0,0,1,6.7,9.85,31.25,31.25,0,0,1,3.15,10.63,23.5,23.5,0,0,1-1.26,10.45,22.85,22.85,0,0,1-6.53,9.31,27.64,27.64,0,0,1-6.22,4.2,24.29,24.29,0,0,1-7.45,2.27,28.43,28.43,0,0,1-8.56-.16,35,35,0,0,1-9.5-3.09,57.68,57.68,0,0,1-10.29-6.52,86.22,86.22,0,0,1-11-10.48,117.81,117.81,0,0,1-7.75-9.66q-3.63-5.07-6.65-10.28a115.75,115.75,0,0,1-5.36-10.42,94.39,94.39,0,0,1-3.91-10.11l16.61-3.95A87.3,87.3,0,0,0,99,537.77q1.9,4.28,4.36,8.6t5.46,8.6a89.44,89.44,0,0,0,6.6,8.29,59,59,0,0,0,9.25,8.66,28,28,0,0,0,7.38,4,10.53,10.53,0,0,0,5.6.45,9,9,0,0,0,3.92-2,7.9,7.9,0,0,0,2.54-7.22q-.53-4.49-5.57-10.12a63.69,63.69,0,0,0-5-4.92q-3-2.65-6.27-5.56t-6.66-6q-3.36-3.09-6.21-6.28a51,51,0,0,1-8.21-11.88,30.22,30.22,0,0,1-3.12-11.25A21.88,21.88,0,0,1,104.86,501a25.59,25.59,0,0,1,6.52-8.75,27.08,27.08,0,0,1,12.93-6.68,31,31,0,0,1,14.73.81,52.85,52.85,0,0,1,15.69,7.85,95.11,95.11,0,0,1,15.83,14.38,116.82,116.82,0,0,1,9.37,11.91,112.71,112.71,0,0,1,7.39,12.37,105.57,105.57,0,0,1,5.41,12.46,94.32,94.32,0,0,1,3.49,12.1Z"/><path class="cls-2" d="M87.3,477A46.26,46.26,0,0,1,68,478.41a43,43,0,0,1-17.12-6.35,48.75,48.75,0,0,1-13.64-13.37,68.67,68.67,0,0,1-11.4-41.13,48.56,48.56,0,0,1,4.81-18.51A43.09,43.09,0,0,1,42,384.79a46.55,46.55,0,0,1,17.28-8.74,47.13,47.13,0,0,1,19.46-1.44,43.7,43.7,0,0,1,17.28,6.31,49,49,0,0,1,13.82,13.35,67,67,0,0,1,11.4,41.13,49.11,49.11,0,0,1-5,18.53,43.61,43.61,0,0,1-11.57,14.3A47,47,0,0,1,87.3,477Zm-5-17.9A31,31,0,0,0,94,453.25a28.06,28.06,0,0,0,7.45-9.43,31.87,31.87,0,0,0,3.09-12,42.77,42.77,0,0,0-7.18-25.92,31.61,31.61,0,0,0-8.81-8.65A28.65,28.65,0,0,0,77.28,393a30.71,30.71,0,0,0-13,.93,30.1,30.1,0,0,0-11.56,5.88,27.49,27.49,0,0,0-7.28,9.38,31.18,31.18,0,0,0-2.88,11.89A45.09,45.09,0,0,0,49.74,447a31.43,31.43,0,0,0,8.6,8.74,26.94,26.94,0,0,0,11.06,4.29A30.48,30.48,0,0,0,82.34,459.11Z"/></svg>